<svg width="170" height="204" viewBox="0 0 170 204" fill="none" xmlns="http://www.w3.org/2000/svg">
<path d="M170 93.9797H0.0366211V203.956H170V93.9797Z" fill="#A80F0F"/>
<path d="M18.0327 191.959H0.0366211V201.956H18.0327V191.959Z" fill="#680909"/>
<path d="M40.028 191.959H20.0323V201.956H40.028V191.959Z" fill="#680909"/>
<path d="M18.0327 167.964H0.0366211V177.962H18.0327V167.964Z" fill="#680909"/>
<path d="M40.028 167.964H20.0323V177.962H40.028V167.964Z" fill="#680909"/>
<path d="M29.0304 179.961H9.03467V189.959H29.0304V179.961Z" fill="#680909"/>
<path d="M7.03511 179.961H0.0366211V189.959H7.03511V179.961Z" fill="#680909"/>
<path d="M40.028 179.961H31.0299V189.959H40.028V179.961Z" fill="#680909"/>
<path d="M18.0327 143.969H0.0366211V153.967H18.0327V143.969Z" fill="#680909"/>
<path d="M40.028 143.969H20.0323V153.967H40.028V143.969Z" fill="#680909"/>
<path d="M150.004 143.969H130.009V153.967H150.004V143.969Z" fill="#680909"/>
<path d="M170 143.969H152.004V153.967H170V143.969Z" fill="#680909"/>
<path d="M150.004 167.964H130.009V177.962H150.004V167.964Z" fill="#680909"/>
<path d="M170 167.964H152.004V177.962H170V167.964Z" fill="#680909"/>
<path d="M150.004 191.959H130.009V201.956H150.004V191.959Z" fill="#680909"/>
<path d="M170 191.959H152.004V201.956H170V191.959Z" fill="#680909"/>
<path d="M161.002 155.966H141.006V165.964H161.002V155.966Z" fill="#680909"/>
<path d="M170 155.966H163.001V165.964H170V155.966Z" fill="#680909"/>
<path d="M29.0304 155.966H9.03467V165.964H29.0304V155.966Z" fill="#680909"/>
<path d="M7.03511 155.966H0.0366211V165.964H7.03511V155.966Z" fill="#680909"/>
<path d="M40.028 155.966H31.0299V165.964H40.028V155.966Z" fill="#680909"/>
<path d="M139.007 155.966H130.009V165.964H139.007V155.966Z" fill="#680909"/>
<path d="M161.002 179.961H141.006V189.959H161.002V179.961Z" fill="#680909"/>
<path d="M170 179.961H163.001V189.959H170V179.961Z" fill="#680909"/>
<path d="M139.007 179.961H130.009V189.959H139.007V179.961Z" fill="#680909"/>
<path d="M18.0327 119.974H0.0366211V129.972H18.0327V119.974Z" fill="#680909"/>
<path d="M40.028 119.974H20.0323V129.972H40.028V119.974Z" fill="#680909"/>
<path d="M150.004 119.974H130.009V129.972H150.004V119.974Z" fill="#680909"/>
<path d="M170 119.974H152.004V129.972H170V119.974Z" fill="#680909"/>
<path d="M29.0304 131.972H9.03467V141.969H29.0304V131.972Z" fill="#680909"/>
<path d="M7.03511 131.972H0.0366211V141.969H7.03511V131.972Z" fill="#680909"/>
<path d="M40.028 131.972H31.0299V141.969H40.028V131.972Z" fill="#680909"/>
<path d="M141.01 141.973H161.005V131.975H141.01V141.973Z" fill="#680909"/>
<path d="M163.005 141.973H170.003V131.975H163.005V141.973Z" fill="#680909"/>
<path d="M130.012 141.973H139.01V131.975H130.012V141.973Z" fill="#680909"/>
<path d="M18.0327 95.9793H0.0366211V105.977H18.0327V95.9793Z" fill="#680909"/>
<path d="M40.028 95.9793H20.0323V105.977H40.028V95.9793Z" fill="#680909"/>
<path d="M62.0233 95.9793H42.0276V105.977H62.0233V95.9793Z" fill="#680909"/>
<path d="M84.0185 95.9793H64.0228V105.977H84.0185V95.9793Z" fill="#680909"/>
<path d="M106.014 95.9793H86.0181V105.977H106.014V95.9793Z" fill="#680909"/>
<path d="M128.009 95.9793H108.013V105.977H128.009V95.9793Z" fill="#680909"/>
<path d="M150.004 95.9793H130.009V105.977H150.004V95.9793Z" fill="#680909"/>
<path d="M170 95.9793H152.004V105.977H170V95.9793Z" fill="#680909"/>
<path d="M29.0304 107.977H9.03467V117.975H29.0304V107.977Z" fill="#680909"/>
<path d="M7.03511 107.977H0.0366211V117.975H7.03511V107.977Z" fill="#680909"/>
<path d="M51.0256 107.977H31.0299V117.975H51.0256V107.977Z" fill="#680909"/>
<path d="M73.0209 107.977H53.0252V117.975H73.0209V107.977Z" fill="#680909"/>
<path d="M95.0161 107.977H75.0204V117.975H95.0161V107.977Z" fill="#680909"/>
<path d="M117.011 107.977H97.0157V117.975H117.011V107.977Z" fill="#680909"/>
<path d="M139.007 107.977H119.011V117.975H139.007V107.977Z" fill="#680909"/>
<path d="M161.002 107.977H141.006V117.975H161.002V107.977Z" fill="#680909"/>
<path d="M170.003 107.977H163.071V117.975H170.003V107.977Z" fill="#680909"/>
<path d="M170 73.9841H0.0366211V93.9798H170V73.9841Z" fill="#680909"/>
<path d="M170 93.9797H0.0366211V203.956H170V93.9797Z" fill="url(#paint0_linear_15_9)" fill-opacity="0.5"/>
<path d="M130.009 113.975H40.028V203.956H130.009V113.975Z" fill="#1A1721"/>
<path opacity="0.4" d="M45.0269 173.962C45.0269 151.434 62.9331 133.175 85.0183 133.175C107.104 133.175 125.01 151.437 125.01 173.962V203.956H45.0269V173.962Z" fill="url(#paint1_radial_15_9)"/>
<path d="M97.5156 198.957C105.797 198.957 112.512 192.242 112.512 183.96C112.512 175.679 97.5156 161.465 97.5156 161.465C97.5156 161.465 95.2928 163.571 92.5633 166.634C86.6413 157.616 77.5199 148.968 77.5199 148.968C77.5199 148.968 57.5242 167.917 57.5242 178.961C57.5242 190.006 66.4756 198.957 77.5199 198.957H97.5156Z" fill="url(#paint2_linear_15_9)"/>
<path d="M91.8368 193.958C96.3559 193.958 100.018 190.296 100.018 185.777C100.018 181.258 91.8368 173.506 91.8368 173.506C91.8368 173.506 90.6238 174.656 89.1341 176.325C85.9048 171.406 80.9292 166.691 80.9292 166.691C80.9292 166.691 70.0215 177.028 70.0215 183.05C70.0215 189.073 74.9038 193.958 80.9292 193.958H91.8368Z" fill="url(#paint3_linear_15_9)"/>
<path d="M115.012 193.958H55.0247V203.956H115.012V193.958Z" fill="#492408"/>
<path d="M55.0247 203.956C57.7856 203.956 60.0237 201.718 60.0237 198.957C60.0237 196.196 57.7856 193.958 55.0247 193.958C52.2639 193.958 50.0258 196.196 50.0258 198.957C50.0258 201.718 52.2639 203.956 55.0247 203.956Z" fill="#75482F"/>
<path d="M75.0204 203.956C77.7812 203.956 80.0193 201.718 80.0193 198.957C80.0193 196.196 77.7812 193.958 75.0204 193.958C72.2596 193.958 70.0215 196.196 70.0215 198.957C70.0215 201.718 72.2596 203.956 75.0204 203.956Z" fill="#75482F"/>
<path d="M95.0161 203.956C97.777 203.956 100.015 201.718 100.015 198.957C100.015 196.196 97.777 193.958 95.0161 193.958C92.2553 193.958 90.0172 196.196 90.0172 198.957C90.0172 201.718 92.2553 203.956 95.0161 203.956Z" fill="#75482F"/>
<path d="M115.012 203.956C117.773 203.956 120.011 201.718 120.011 198.957C120.011 196.196 117.773 193.958 115.012 193.958C112.251 193.958 110.013 196.196 110.013 198.957C110.013 201.718 112.251 203.956 115.012 203.956Z" fill="#75482F"/>
<path d="M40.028 173.962V203.956H130.009V173.962H40.028ZM52.0254 201.956H42.0276V175.962H52.0254V201.956ZM64.0228 201.956H54.025V175.962H64.0228V201.956ZM76.0203 201.956H66.0224V175.962H76.0203V201.956ZM88.0177 201.956H78.0198V175.962H88.0177V201.956ZM100.015 201.956H90.0172V175.962H100.015V201.956ZM112.012 201.956H102.015V175.962H112.012V201.956ZM124.01 201.956H114.012V175.962H124.01V201.956Z" fill="#444444"/>
<path d="M43.3606 33.9927H56.691C58.5306 33.9927 60.0236 35.4857 60.0236 37.3253V73.9841H40.028V37.3253C40.028 35.4857 41.521 33.9927 43.3606 33.9927Z" fill="#A80F0F"/>
<path d="M37.5285 42.9907C37.5285 44.4571 38.7882 45.6268 40.2846 45.4769C41.5843 45.3469 42.5274 44.1538 42.5274 42.8474V39.1349C42.5274 37.8285 43.4672 36.6354 44.7703 36.5055C46.2666 36.3555 47.5263 37.5252 47.5263 38.9916V40.8479C47.5263 42.1543 48.4661 43.3473 49.7692 43.4773C51.2655 43.6273 52.5253 42.4575 52.5253 40.9912V39.1349C52.5253 37.8285 53.4651 36.6354 54.7681 36.5055C56.2645 36.3555 57.5242 37.5252 57.5242 38.9916V46.8466C57.5242 48.153 58.464 49.346 59.767 49.476C61.2634 49.626 62.5231 48.4562 62.5231 46.9899V38.9916C62.5231 36.2322 60.2836 33.9927 57.5242 33.9927H42.5274C39.768 33.9927 37.5285 36.2322 37.5285 38.9916V42.9907Z" fill="#680909"/>
<path d="M50.5257 28.9937H49.5259V33.9927H50.5257V28.9937Z" fill="black"/>
<path opacity="0.3" d="M50.0258 39.9914C58.3083 39.9914 65.0226 31.039 65.0226 19.9957C65.0226 8.95237 58.3083 0 50.0258 0C41.7433 0 35.0291 8.95237 35.0291 19.9957C35.0291 31.039 41.7433 39.9914 50.0258 39.9914Z" fill="url(#paint4_radial_15_9)"/>
<path d="M55.0248 24.9946C55.0248 27.754 52.7852 29.9935 50.0258 29.9935C47.2664 29.9935 45.0269 27.754 45.0269 24.9946C45.0269 22.2352 50.0258 9.99783 50.0258 9.99783C50.0258 9.99783 55.0248 22.2352 55.0248 24.9946Z" fill="url(#paint5_linear_15_9)"/>
<path d="M73.3541 53.9883H86.6846C88.5242 53.9883 90.0172 55.4814 90.0172 57.321V73.984H70.0215V57.321C70.0215 55.4814 71.5145 53.9883 73.3541 53.9883Z" fill="#A80F0F"/>
<path d="M67.522 62.9864C67.522 64.4528 68.7818 65.6225 70.2781 65.4725C71.5778 65.3426 72.521 64.1495 72.521 62.8431V59.1306C72.521 57.8242 73.4608 56.6311 74.7638 56.5011C76.2601 56.3512 77.5199 57.5209 77.5199 58.9873V65.8425C77.5199 67.1488 78.4597 68.3419 79.7627 68.4719C81.2591 68.6219 82.5188 67.4521 82.5188 65.9858V59.1306C82.5188 57.8242 83.4586 56.6311 84.7616 56.5011C86.258 56.3512 87.5177 57.5209 87.5177 58.9873V60.8435C87.5177 62.1499 88.4575 63.343 89.7606 63.473C91.2569 63.6229 92.5166 62.4532 92.5166 60.9868V58.9873C92.5166 56.2279 90.2771 53.9883 87.5177 53.9883H72.521C69.7616 53.9883 67.522 56.2279 67.522 58.9873V62.9864Z" fill="#680909"/>
<path d="M80.5193 48.9894H79.5195V53.9884H80.5193V48.9894Z" fill="black"/>
<path opacity="0.3" d="M80.0193 59.9871C88.3018 59.9871 95.0161 51.0347 95.0161 39.9914C95.0161 28.9481 88.3018 19.9957 80.0193 19.9957C71.7369 19.9957 65.0226 28.9481 65.0226 39.9914C65.0226 51.0347 71.7369 59.9871 80.0193 59.9871Z" fill="url(#paint6_radial_15_9)"/>
<path d="M85.0183 44.9903C85.0183 47.7497 82.7788 49.9892 80.0194 49.9892C77.26 49.9892 75.0204 47.7497 75.0204 44.9903C75.0204 42.2309 80.0194 29.9935 80.0194 29.9935C80.0194 29.9935 85.0183 42.2309 85.0183 44.9903Z" fill="url(#paint7_linear_15_9)"/>
<defs>
<linearGradient id="paint0_linear_15_9" x1="85.0183" y1="93.9797" x2="85.0183" y2="203.956" gradientUnits="userSpaceOnUse">
<stop/>
<stop offset="0.545357" stop-opacity="0"/>
</linearGradient>
<radialGradient id="paint1_radial_15_9" cx="0" cy="0" r="1" gradientUnits="userSpaceOnUse" gradientTransform="translate(85.2016 177.408) scale(46.9065 46.9066)">
<stop stop-color="#C15E2F"/>
<stop offset="0.8" stop-color="#C15E2F" stop-opacity="0"/>
</radialGradient>
<linearGradient id="paint2_linear_15_9" x1="85.0183" y1="198.957" x2="85.0183" y2="148.968" gradientUnits="userSpaceOnUse">
<stop stop-color="#490606"/>
<stop offset="0.17" stop-color="#650808"/>
<stop offset="0.38" stop-color="#820B0B"/>
<stop offset="0.59" stop-color="#970D0D"/>
<stop offset="0.8" stop-color="#A30E0E"/>
<stop offset="1" stop-color="#A80F0F"/>
</linearGradient>
<linearGradient id="paint3_linear_15_9" x1="85.0183" y1="193.958" x2="85.0183" y2="166.691" gradientUnits="userSpaceOnUse">
<stop stop-color="#D3761A"/>
<stop offset="0.35" stop-color="#DA8F28"/>
<stop offset="0.75" stop-color="#E2A836"/>
<stop offset="1" stop-color="#E5B13C"/>
</linearGradient>
<radialGradient id="paint4_radial_15_9" cx="0" cy="0" r="1" gradientUnits="userSpaceOnUse" gradientTransform="translate(50.0258 20.4745) scale(17.6729 22.6213)">
<stop stop-color="#EACE86"/>
<stop offset="0.8" stop-color="#EACE86" stop-opacity="0"/>
</radialGradient>
<linearGradient id="paint5_linear_15_9" x1="50.0258" y1="29.9935" x2="50.0258" y2="9.99783" gradientUnits="userSpaceOnUse">
<stop stop-color="#D3761A"/>
<stop offset="0.35" stop-color="#DA8F28"/>
<stop offset="0.75" stop-color="#E2A836"/>
<stop offset="1" stop-color="#E5B13C"/>
</linearGradient>
<radialGradient id="paint6_radial_15_9" cx="0" cy="0" r="1" gradientUnits="userSpaceOnUse" gradientTransform="translate(80.0193 40.5202) scale(17.6729 22.6213)">
<stop stop-color="#EACE86"/>
<stop offset="0.8" stop-color="#EACE86" stop-opacity="0"/>
</radialGradient>
<linearGradient id="paint7_linear_15_9" x1="80.0194" y1="49.9892" x2="80.0194" y2="29.9935" gradientUnits="userSpaceOnUse">
<stop stop-color="#D3761A"/>
<stop offset="0.35" stop-color="#DA8F28"/>
<stop offset="0.75" stop-color="#E2A836"/>
<stop offset="1" stop-color="#E5B13C"/>
</linearGradient>
</defs>
</svg>
