<svg width="288" height="86" viewBox="0 0 288 86" fill="none" xmlns="http://www.w3.org/2000/svg">
<path d="M33.96 34L33.92 6.12L18.72 29.96L6.08 9.92V34H1.52V0.759999H5.4L19.92 24.12L34.56 0.759999H38.48L38.52 34H33.96ZM53.6169 8.48C58.7369 8.48 63.7369 10.32 66.6169 14.72C68.8169 18 68.5369 21.48 68.5369 21.48L46.0169 21.36L43.6169 20.32C43.3769 22.52 43.9769 25.72 47.4569 28.16C49.4169 29.56 51.9369 30.2 54.8969 30.2C58.4969 30.2 61.3769 29.2 63.5769 27.16L66.6169 30.12C63.5369 33.08 58.8569 34.2 54.6969 34.2C51.5369 34.2 48.6969 33.64 46.2169 32.56C41.5769 30.44 38.4969 26.52 38.4969 21.32C38.4969 13.08 45.8969 8.48 53.6169 8.48ZM43.9769 19.56H63.2969C62.6569 14.68 58.1369 12.36 53.6169 12.36C49.0569 12.36 44.6169 14.68 43.9769 19.56ZM78.2778 9.64C79.7978 8.92 81.5178 8.64 83.4378 8.64H88.3578V12.76C88.0378 12.72 82.8378 12.72 82.5178 12.72C77.2778 12.72 74.5578 16 74.5578 21.08V34.04H69.9978V8.68H74.5578V10.24L74.3978 10.64C72.3978 15.28 71.9178 20.4 72.9978 25.28C72.9978 25.28 73.9178 11.64 78.2778 9.64ZM96.2778 9.64C97.7978 8.92 99.5178 8.64 101.438 8.64H106.358V12.76C106.038 12.72 100.838 12.72 100.518 12.72C95.2778 12.72 92.5578 16 92.5578 21.08V34.04H87.9978V8.68H92.5578V10.24L92.3978 10.64C90.3978 15.28 89.9178 20.4 90.9978 25.28C90.9978 25.28 91.9178 11.64 96.2778 9.64ZM118.238 28.88L126.918 8.72H131.398L119.198 36.4C117.438 40.6 114.998 43.4 110.198 43.4C107.998 43.4 105.358 42.68 103.758 41.08L105.718 37.64C106.998 38.88 108.518 39.52 110.198 39.52C111.318 39.52 112.238 39.2 112.998 38.64C113.718 38.04 114.398 37.04 114.998 35.6L116.518 32.44L118.918 32.08V31.24L116.358 29.92L106.998 8.72H109.438L118.238 28.88Z" fill="white"/>
<path d="M71.76 76.12C64.36 76.12 57.72 74.56 53.76 67.8C50.72 62 50.72 56.2 53.76 50.4C57.72 43.64 64.48 42.08 71.84 42.08C77.32 42.08 82.36 43 86.12 47.28L83.04 50.28C80.32 47.44 75.2 46.04 70.32 46.04C64.72 46.04 59.6 47.56 56.6 52.56C54.36 56.92 54.04 61.28 56.28 65.64C57.4 67.56 59.32 69.12 61.28 70.2C63.6 71.52 66.88 72.16 70.24 72.16C75.16 72.16 80.32 70.76 83.04 67.88L86.12 70.88C82.36 75.16 77.24 76.12 71.76 76.12ZM100.984 50.48C108.144 50.48 112.064 54.2 112.064 61.4V75.88H107.504V61.92C107.504 56.92 105.104 54.56 100.064 54.56C94.8238 54.56 92.1038 57.84 92.1038 62.92V75.88H87.5438V40.68H92.1038V52.08L91.9438 52.48C89.9438 57.12 89.4638 62.24 90.5438 67.12C90.5438 67.12 91.4638 53.48 95.8238 51.48C97.3438 50.8 99.0638 50.48 100.984 50.48ZM122.614 51.64C124.134 50.92 125.854 50.64 127.774 50.64H132.694V54.76C132.374 54.72 127.174 54.72 126.854 54.72C121.614 54.72 118.894 58 118.894 63.08V76.04H114.334V50.68H118.894V52.24L118.734 52.64C116.734 57.28 116.254 62.4 117.334 67.28C117.334 67.28 118.254 53.64 122.614 51.64ZM139.049 45.08V47.6H134.489V45.08H139.049ZM140.609 74.76L141.889 75.88H136.449L135.609 74.88C134.969 74.08 134.609 73.08 134.609 72.04V50.76H139.169V71.44C139.169 72.68 139.689 73.88 140.609 74.76ZM161.224 62.72C162.504 63.12 163.544 63.8 164.424 64.76C165.744 66.16 166.064 68.4 165.544 70.2C164.664 73.76 160.904 75.4 157.584 75.92C155.984 76.2 154.384 76.24 152.784 76.2C148.904 76.12 144.704 75.4 141.584 72.92V68.32C142.224 68.76 142.784 69.28 143.424 69.68C144.584 70.44 145.864 71 147.184 71.4C149.224 72 151.424 72.32 153.504 72.28C155.384 72.24 160.104 71.64 161.024 69.56C161.464 68.72 161.104 67.6 160.424 67.04C159.864 66.56 159.184 66.24 158.384 66.04C157.584 65.84 153.504 65.6 152.024 65.36C150.024 65.04 148.344 64.68 147.064 64.28C145.784 63.84 144.704 63.16 143.784 62.16C142.304 60.6 142.064 58.04 142.664 56.04C143.264 54 144.984 52.52 146.864 51.6C149.064 50.52 151.464 50.32 153.904 50.6C157.144 50.92 161.904 52.16 164.704 53.96L163.064 57.6C161.504 56.6 159.624 55.96 157.864 55.4C155.944 54.76 153.944 54.28 151.904 54.4C150.704 54.48 149.464 54.68 148.424 55.36C147.664 55.8 147.064 56.52 146.944 57.4C146.784 58.28 147.064 59.24 147.744 59.8C148.344 60.28 149.024 60.64 149.864 60.84C150.704 61.08 151.904 61.32 153.424 61.6C155.424 61.96 159.984 62.32 161.224 62.72ZM178.434 73C179.834 73 181.034 72.6 181.994 71.8L183.434 74.44C181.954 75.64 179.794 76.2 177.914 76.2C172.834 76.2 169.954 73.4 169.954 68.32V57.04L171.514 52.32H170.874L169.954 52.84H165.674V50.72H170.914V45.24H174.474L174.554 50.48L174.514 50.72H181.714V52.84H174.514V68.76C174.514 71.32 175.754 73 178.434 73ZM221.484 50.48C224.684 50.48 228.204 51.4 230.084 53.28C231.964 55.12 232.884 57.84 232.884 61.4V75.88H228.324V61.92C228.324 59.48 227.764 57.64 226.564 56.4C225.404 55.2 222.764 54.56 220.564 54.56C218.124 54.56 215.244 55.36 213.804 56.8C212.404 58.24 211.284 60.24 211.284 62.92V75.88H206.684V61.92C206.684 59.48 206.084 57.64 204.924 56.4C203.764 55.2 201.084 54.56 198.924 54.56C196.444 54.56 193.564 55.36 192.164 56.8C190.724 58.24 189.644 60.24 189.644 62.92V75.88H185.084V50.52H189.644C189.604 50.56 189.604 50.56 189.604 50.6C189.564 50.6 189.564 50.64 189.524 50.68C189.524 50.72 189.484 50.76 189.484 50.8C189.444 50.84 189.404 50.92 189.364 50.96C189.324 51.04 189.324 51.08 189.284 51.16C189.244 51.24 189.204 51.32 189.164 51.36C189.124 51.48 189.084 51.56 189.004 51.64C188.964 51.72 188.924 51.84 188.884 51.92C188.804 52.12 188.684 52.44 188.564 52.6C188.524 52.72 188.484 52.84 188.404 52.96C188.364 53.12 188.324 53.24 188.244 53.36C188.204 53.52 188.164 53.68 188.084 53.8C188.044 53.96 188.004 54.12 187.924 54.28C187.884 54.44 187.844 54.6 187.764 54.76C187.724 54.96 187.684 55.12 187.644 55.28C187.564 55.48 187.524 55.64 187.484 55.84C187.444 56 187.404 56.2 187.364 56.4C187.284 56.8 187.204 57.2 187.124 57.6C187.084 57.8 187.044 58.04 187.004 58.24C186.964 58.48 186.964 58.68 186.924 58.92C186.884 59.12 186.884 59.36 186.844 59.6C186.844 59.84 186.844 60.04 186.804 60.28C186.804 60.52 186.804 60.76 186.804 61C186.764 61.28 186.764 61.52 186.804 61.76C186.804 62 186.804 62.28 186.804 62.52C186.804 62.76 186.844 63.04 186.844 63.32C186.884 63.56 186.924 63.84 186.924 64.08C186.964 64.36 187.004 64.64 187.044 64.92C187.084 65.2 187.124 65.48 187.204 65.76C187.244 66.04 187.284 66.32 187.364 66.6C187.404 66.68 187.404 66.8 187.444 66.88C187.444 66.96 187.484 67.08 187.484 67.08C187.524 67.12 188.004 67.12 188.084 67.12C188.084 67.12 188.324 54.28 193.364 51.84C194.844 51.12 197.204 50.48 199.804 50.48C205.364 50.48 209.884 52.6 210.964 58.36C211.724 55.52 212.964 52.84 215.004 51.84C216.524 51.12 218.844 50.48 221.484 50.48ZM248.874 50.36C255.474 50.24 260.794 54.12 260.794 59.08L260.714 75.76L255.994 75.84L256.914 70.64H256.554C253.274 73.72 250.914 75.92 247.674 76C244.114 76.04 240.754 75.32 238.234 73.96C235.474 72.52 233.954 70.44 233.954 68.2C233.954 65.96 235.474 63.84 238.274 62.28C240.834 60.84 244.194 60 247.714 59.92C249.034 59.92 250.354 60.12 251.514 60.44C253.994 61.12 255.594 63.16 256.954 64.4H257.034L256.034 59.28C256.034 56.12 252.594 53.6 248.354 53.68L246.754 53.72C243.474 53.76 240.594 55.16 239.034 57.16L235.274 55.28C237.634 52.4 241.794 50.48 246.554 50.4L248.874 50.36ZM255.994 68.8L256.034 66.84C255.074 65 251.474 63.64 247.274 63.72C242.434 63.8 238.314 65.8 238.274 68.12C238.274 70.44 242.394 72.32 247.274 72.24C251.434 72.16 255.034 70.68 255.994 68.8ZM281.037 62.72C282.317 63.12 283.357 63.8 284.237 64.76C285.557 66.16 285.877 68.4 285.357 70.2C284.477 73.76 280.717 75.4 277.397 75.92C275.797 76.2 274.197 76.24 272.597 76.2C268.717 76.12 264.517 75.4 261.397 72.92V68.32C262.037 68.76 262.597 69.28 263.237 69.68C264.397 70.44 265.677 71 266.997 71.4C269.037 72 271.237 72.32 273.317 72.28C275.197 72.24 279.917 71.64 280.837 69.56C281.277 68.72 280.917 67.6 280.237 67.04C279.677 66.56 278.997 66.24 278.197 66.04C277.397 65.84 273.317 65.6 271.837 65.36C269.837 65.04 268.157 64.68 266.877 64.28C265.597 63.84 264.517 63.16 263.597 62.16C262.117 60.6 261.877 58.04 262.477 56.04C263.077 54 264.797 52.52 266.677 51.6C268.877 50.52 271.277 50.32 273.717 50.6C276.957 50.92 281.717 52.16 284.517 53.96L282.877 57.6C281.317 56.6 279.437 55.96 277.677 55.4C275.757 54.76 273.757 54.28 271.717 54.4C270.517 54.48 269.277 54.68 268.237 55.36C267.477 55.8 266.877 56.52 266.757 57.4C266.597 58.28 266.877 59.24 267.557 59.8C268.157 60.28 268.837 60.64 269.677 60.84C270.517 61.08 271.717 61.32 273.237 61.6C275.237 61.96 279.797 62.32 281.037 62.72Z" fill="white"/>
</svg>
