<svg width="280" height="257" viewBox="0 0 280 257" fill="none" xmlns="http://www.w3.org/2000/svg">
<g clip-path="url(#clip0_11_10)">
<path opacity="0.5" d="M205 6C202.907 7.14333 201.267 8.96667 200.347 11.1667L200 12L199.653 11.1667C198.733 8.96667 197.093 7.14333 195 6C197.093 4.85667 198.733 3.03333 199.653 0.833333L200 0L200.347 0.833333C201.267 3.03333 202.907 4.85667 205 6Z" fill="white"/>
<path d="M280 231C277.907 232.143 276.267 233.967 275.347 236.167L275 237L274.653 236.167C273.733 233.967 272.093 232.143 270 231C272.093 229.857 273.733 228.033 274.653 225.833L275 225L275.347 225.833C276.267 228.033 277.907 229.857 280 231Z" fill="white"/>
<path d="M10 98C7.90667 99.1433 6.26667 100.967 5.34667 103.167L5 104L4.65333 103.167C3.73333 100.967 2.09333 99.1433 0 98C2.09333 96.8567 3.73333 95.0333 4.65333 92.8333L5 92L5.34667 92.8333C6.26667 95.0333 7.90667 96.8567 10 98Z" fill="white"/>
<path opacity="0.5" d="M62.5 207C63.8807 207 65 205.881 65 204.5C65 203.119 63.8807 202 62.5 202C61.1193 202 60 203.119 60 204.5C60 205.881 61.1193 207 62.5 207Z" fill="white"/>
<path opacity="0.5" d="M245 149.5C246.381 149.5 247.5 148.381 247.5 147C247.5 145.619 246.381 144.5 245 144.5C243.619 144.5 242.5 145.619 242.5 147C242.5 148.381 243.619 149.5 245 149.5Z" fill="white"/>
<path d="M257.5 77C258.881 77 260 75.8807 260 74.5C260 73.1193 258.881 72 257.5 72C256.119 72 255 73.1193 255 74.5C255 75.8807 256.119 77 257.5 77Z" fill="white"/>
<path d="M22.5 257C23.8807 257 25 255.881 25 254.5C25 253.119 23.8807 252 22.5 252C21.1193 252 20 253.119 20 254.5C20 255.881 21.1193 257 22.5 257Z" fill="white"/>
<path opacity="0.5" d="M42.5 48.5C43.8807 48.5 45 47.3807 45 46C45 44.6193 43.8807 43.5 42.5 43.5C41.1193 43.5 40 44.6193 40 46C40 47.3807 41.1193 48.5 42.5 48.5Z" fill="white"/>
</g>
<defs>
<clipPath id="clip0_11_10">
<rect width="280" height="257" fill="white"/>
</clipPath>
</defs>
</svg>
